<?xml version="1.0" encoding="iso-8859-1"?>
<!-- Uploaded to: SVG Repo, www.svgrepo.com, Generator: SVG Repo Mixer Tools -->
<svg fill="#000000" height="800px" width="800px" version="1.1" id="Layer_1" xmlns="http://www.w3.org/2000/svg" xmlns:xlink="http://www.w3.org/1999/xlink" 
	 viewBox="0 0 512.001 512.001" xml:space="preserve">
<g>
	<g>
		<path d="M392.53,140.246c-19.884-19.021-45.131-30.567-75.04-34.315c-9.868-1.23-18.875,5.762-20.113,15.634
			c-1.237,9.871,5.762,18.876,15.634,20.113c22.069,2.766,40.445,11.042,54.618,24.6c3.49,3.338,7.972,4.997,12.449,4.997
			c4.743,0,9.481-1.862,13.018-5.561C399.973,158.525,399.719,147.123,392.53,140.246z"/>
	</g>
</g>
<g>
	<g>
		<path d="M511.332,187.196l-12.716-45.531c-2.675-9.581-12.616-15.177-22.194-12.504c-5.971,1.668-10.391,6.154-12.231,11.617
			c-9.255-12.024-20.242-23.263-32.875-33.496c-42.72-34.603-99.295-53.661-159.302-53.661c-8.225,0-16.407,0.371-24.518,1.09
			c-15.492-11.518-34.669-18.346-55.414-18.346H150.9c-5.807,0-11.259,2.8-14.642,7.521c-3.383,4.721-4.281,10.782-2.415,16.282
			l9.03,26.597c-31.575,17.984-57.154,42.231-74.305,70.604C57.807,175.172,39.3,185.8,19.061,185.8h-1.048
			C8.065,185.8,0,193.865,0,203.812v96.779c0,8.318,5.696,15.554,13.781,17.508c32.816,7.932,63.259,24.325,88.037,47.408
			c6.888,6.416,14.355,12.471,22.294,18.082l-10.875,71.317c-0.791,5.191,0.722,10.47,4.144,14.453
			c3.422,3.983,8.412,6.276,13.663,6.276h79.983c8.923,0,16.502-6.533,17.816-15.36l5.102-34.256
			c12.55,1.746,25.291,2.626,38.068,2.626c28.361,0,56.609-4.409,82.887-12.859l6.626,44.489c1.315,8.826,8.892,15.36,17.816,15.36
			h79.983c9.948,0,18.013-8.065,18.013-18.013v-135.92c14.369-24.982,21.942-52.73,21.942-80.57c0-10.575-1.06-21.004-3.111-31.216
			c0.886-0.109,1.775-0.28,2.66-0.527C508.41,206.714,514.008,196.778,511.332,187.196z M443.992,307.296
			c-1.752,2.842-2.679,6.115-2.679,9.453V439.61H394.87l-7.61-51.1c-0.823-5.52-4.156-10.346-9.028-13.07
			c-4.871-2.724-10.729-3.036-15.862-0.843c-27.614,11.79-58.86,18.022-90.358,18.022c-16.716,0-33.345-1.73-49.424-5.143
			c-4.861-1.03-9.932-0.008-14.013,2.824c-4.082,2.834-6.811,7.228-7.542,12.143l-5.535,37.166h-43.487l9.441-61.913
			c1.08-7.083-2.141-14.133-8.202-17.954c-9.786-6.169-18.829-13.098-26.877-20.594c-25.802-24.034-56.802-41.937-90.349-52.277
			v-66.585c26.109-4.802,49.06-20.604,63.372-44.279c13.053-21.593,32.221-40.032,55.349-54.266l4.578,13.482
			c2.547,7.5,9.55,12.227,17.054,12.227c1.92,0,3.874-0.309,5.793-0.961c9.419-3.198,14.463-13.427,11.265-22.847l-17.4-51.252
			h16.047c31.454,0,57.042,25.589,57.042,57.042c0,9.948,8.065,18.013,18.013,18.013c9.948,0,18.013-8.065,18.013-18.013
			c0-14.212-3.213-27.684-8.934-39.744c103.517,1.777,187.039,69.027,187.039,151.445
			C463.254,264.302,456.773,286.562,443.992,307.296z"/>
	</g>
</g>
<g>
	<g>
		<path d="M131.044,174.028c-9.948,0-18.013,8.065-18.013,18.013v11.773c0,9.948,8.065,18.013,18.013,18.013
			s18.013-8.065,18.013-18.013v-11.773C149.056,182.093,140.992,174.028,131.044,174.028z"/>
	</g>
</g>
</svg>